<mxfile host="app.diagrams.net" agent="Mozilla/5.0 (Windows NT 10.0; Win64; x64) AppleWebKit/537.36 (KHTML, like Gecko) Chrome/136.0.0.0 Safari/537.36" version="27.0.9">
  <diagram name="PÃ¡gina-1" id="tk883FMMthcRZrW7SJB8">
    <mxGraphModel dx="1237" dy="1846" grid="1" gridSize="10" guides="1" tooltips="1" connect="1" arrows="1" fold="1" page="1" pageScale="1" pageWidth="827" pageHeight="1169" math="0" shadow="0">
      <root>
        <mxCell id="0" />
        <mxCell id="1" parent="0" />
        <mxCell id="6wgVJU0eq-c5YWtlfM_m-1" value="Logger &amp;lt;&amp;lt;Singleton&amp;gt;&amp;gt;&lt;div&gt;&amp;nbsp;&lt;/div&gt;" style="swimlane;fontStyle=1;align=center;verticalAlign=top;childLayout=stackLayout;horizontal=1;startSize=26;horizontalStack=0;resizeParent=1;resizeParentMax=0;resizeLast=0;collapsible=1;marginBottom=0;whiteSpace=wrap;html=1;" parent="1" vertex="1">
          <mxGeometry x="190" y="340" width="200" height="210" as="geometry" />
        </mxCell>
        <mxCell id="6wgVJU0eq-c5YWtlfM_m-2" value="&lt;div&gt;- ERR_PREFIX &amp;lt;&amp;lt;static const&amp;gt;&amp;gt;&lt;/div&gt;&lt;div&gt;- MSG_PREFIX &amp;lt;&amp;lt;static const&amp;gt;&amp;gt;&lt;/div&gt;&lt;div&gt;- WAR_PREFIX &amp;lt;&amp;lt;static const&amp;gt;&amp;gt;&lt;/div&gt;&lt;div&gt;&lt;br&gt;&lt;/div&gt;- ostream: _out" style="text;strokeColor=none;fillColor=none;align=left;verticalAlign=top;spacingLeft=4;spacingRight=4;overflow=hidden;rotatable=0;points=[[0,0.5],[1,0.5]];portConstraint=eastwest;whiteSpace=wrap;html=1;" parent="6wgVJU0eq-c5YWtlfM_m-1" vertex="1">
          <mxGeometry y="26" width="200" height="84" as="geometry" />
        </mxCell>
        <mxCell id="6wgVJU0eq-c5YWtlfM_m-3" value="" style="line;strokeWidth=1;fillColor=none;align=left;verticalAlign=middle;spacingTop=-1;spacingLeft=3;spacingRight=3;rotatable=0;labelPosition=right;points=[];portConstraint=eastwest;strokeColor=inherit;" parent="6wgVJU0eq-c5YWtlfM_m-1" vertex="1">
          <mxGeometry y="110" width="200" height="10" as="geometry" />
        </mxCell>
        <mxCell id="6wgVJU0eq-c5YWtlfM_m-4" value="&lt;div&gt;&lt;span style=&quot;background-color: transparent; color: light-dark(rgb(0, 0, 0), rgb(255, 255, 255));&quot;&gt;+ Logger(LogType, ostream)&lt;/span&gt;&lt;/div&gt;+ Logger(LogType, string)&lt;div&gt;+ logInfo(string ...)&lt;/div&gt;&lt;div&gt;&lt;div&gt;+ logWarning(string ...)&lt;/div&gt;&lt;/div&gt;&lt;div&gt;&lt;div&gt;+ logError(string ...)&lt;/div&gt;&lt;/div&gt;&lt;div&gt;&lt;br&gt;&lt;/div&gt;" style="text;strokeColor=none;fillColor=none;align=left;verticalAlign=top;spacingLeft=4;spacingRight=4;overflow=hidden;rotatable=0;points=[[0,0.5],[1,0.5]];portConstraint=eastwest;whiteSpace=wrap;html=1;" parent="6wgVJU0eq-c5YWtlfM_m-1" vertex="1">
          <mxGeometry y="120" width="200" height="90" as="geometry" />
        </mxCell>
        <mxCell id="6wgVJU0eq-c5YWtlfM_m-7" value="LogType &amp;lt;&amp;lt;enum&amp;gt;&amp;gt;" style="swimlane;fontStyle=1;align=center;verticalAlign=top;childLayout=stackLayout;horizontal=1;startSize=26;horizontalStack=0;resizeParent=1;resizeParentMax=0;resizeLast=0;collapsible=1;marginBottom=0;whiteSpace=wrap;html=1;" parent="1" vertex="1">
          <mxGeometry x="215" y="222" width="150" height="52" as="geometry" />
        </mxCell>
        <mxCell id="6wgVJU0eq-c5YWtlfM_m-8" value="INFO, WAR, ERR" style="text;strokeColor=none;fillColor=none;align=left;verticalAlign=top;spacingLeft=4;spacingRight=4;overflow=hidden;rotatable=0;points=[[0,0.5],[1,0.5]];portConstraint=eastwest;whiteSpace=wrap;html=1;" parent="6wgVJU0eq-c5YWtlfM_m-7" vertex="1">
          <mxGeometry y="26" width="150" height="26" as="geometry" />
        </mxCell>
        <mxCell id="6wgVJU0eq-c5YWtlfM_m-13" value="" style="endArrow=open;endFill=1;endSize=12;html=1;rounded=0;" parent="1" source="6wgVJU0eq-c5YWtlfM_m-1" target="6wgVJU0eq-c5YWtlfM_m-7" edge="1">
          <mxGeometry width="160" relative="1" as="geometry">
            <mxPoint x="243" y="350" as="sourcePoint" />
            <mxPoint x="206" y="262" as="targetPoint" />
          </mxGeometry>
        </mxCell>
        <mxCell id="6wgVJU0eq-c5YWtlfM_m-14" value="1" style="edgeLabel;html=1;align=center;verticalAlign=middle;resizable=0;points=[];" parent="6wgVJU0eq-c5YWtlfM_m-13" vertex="1" connectable="0">
          <mxGeometry x="0.4157" y="2" relative="1" as="geometry">
            <mxPoint x="14" y="1" as="offset" />
          </mxGeometry>
        </mxCell>
        <mxCell id="6wgVJU0eq-c5YWtlfM_m-15" value="" style="endArrow=open;endFill=1;endSize=12;html=1;rounded=0;" parent="1" source="6wgVJU0eq-c5YWtlfM_m-17" target="I9XYT82SZLcXuWSCUwmC-47" edge="1">
          <mxGeometry width="160" relative="1" as="geometry">
            <mxPoint x="742" y="480" as="sourcePoint" />
            <mxPoint x="839.5707070707072" y="274" as="targetPoint" />
          </mxGeometry>
        </mxCell>
        <mxCell id="6wgVJU0eq-c5YWtlfM_m-17" value="VirtualServer" style="swimlane;fontStyle=1;align=center;verticalAlign=top;childLayout=stackLayout;horizontal=1;startSize=26;horizontalStack=0;resizeParent=1;resizeParentMax=0;resizeLast=0;collapsible=1;marginBottom=0;whiteSpace=wrap;html=1;" parent="1" vertex="1">
          <mxGeometry x="660" y="390" width="350" height="80" as="geometry" />
        </mxCell>
        <mxCell id="6wgVJU0eq-c5YWtlfM_m-18" value="&lt;div&gt;- configuration: VirtualServerConfiguration&lt;/div&gt;&lt;div&gt;&lt;br&gt;&lt;/div&gt;" style="text;strokeColor=none;fillColor=none;align=left;verticalAlign=top;spacingLeft=4;spacingRight=4;overflow=hidden;rotatable=0;points=[[0,0.5],[1,0.5]];portConstraint=eastwest;whiteSpace=wrap;html=1;" parent="6wgVJU0eq-c5YWtlfM_m-17" vertex="1">
          <mxGeometry y="26" width="350" height="24" as="geometry" />
        </mxCell>
        <mxCell id="6wgVJU0eq-c5YWtlfM_m-19" value="" style="line;strokeWidth=1;fillColor=none;align=left;verticalAlign=middle;spacingTop=-1;spacingLeft=3;spacingRight=3;rotatable=0;labelPosition=right;points=[];portConstraint=eastwest;strokeColor=inherit;" parent="6wgVJU0eq-c5YWtlfM_m-17" vertex="1">
          <mxGeometry y="50" width="350" height="8" as="geometry" />
        </mxCell>
        <mxCell id="6wgVJU0eq-c5YWtlfM_m-20" value="+ VirtualServer(Configuration)&lt;div&gt;&lt;br&gt;&lt;/div&gt;" style="text;strokeColor=none;fillColor=none;align=left;verticalAlign=top;spacingLeft=4;spacingRight=4;overflow=hidden;rotatable=0;points=[[0,0.5],[1,0.5]];portConstraint=eastwest;whiteSpace=wrap;html=1;" parent="6wgVJU0eq-c5YWtlfM_m-17" vertex="1">
          <mxGeometry y="58" width="350" height="22" as="geometry" />
        </mxCell>
        <mxCell id="6wgVJU0eq-c5YWtlfM_m-23" value="Parser" style="swimlane;fontStyle=1;align=center;verticalAlign=top;childLayout=stackLayout;horizontal=1;startSize=26;horizontalStack=0;resizeParent=1;resizeParentMax=0;resizeLast=0;collapsible=1;marginBottom=0;whiteSpace=wrap;html=1;" parent="1" vertex="1">
          <mxGeometry x="440" y="-110" width="160" height="120" as="geometry" />
        </mxCell>
        <mxCell id="6wgVJU0eq-c5YWtlfM_m-24" value="+ field: type" style="text;strokeColor=none;fillColor=none;align=left;verticalAlign=top;spacingLeft=4;spacingRight=4;overflow=hidden;rotatable=0;points=[[0,0.5],[1,0.5]];portConstraint=eastwest;whiteSpace=wrap;html=1;" parent="6wgVJU0eq-c5YWtlfM_m-23" vertex="1">
          <mxGeometry y="26" width="160" height="26" as="geometry" />
        </mxCell>
        <mxCell id="6wgVJU0eq-c5YWtlfM_m-25" value="" style="line;strokeWidth=1;fillColor=none;align=left;verticalAlign=middle;spacingTop=-1;spacingLeft=3;spacingRight=3;rotatable=0;labelPosition=right;points=[];portConstraint=eastwest;strokeColor=inherit;" parent="6wgVJU0eq-c5YWtlfM_m-23" vertex="1">
          <mxGeometry y="52" width="160" height="8" as="geometry" />
        </mxCell>
        <mxCell id="6wgVJU0eq-c5YWtlfM_m-26" value="+ Parser(string)&lt;div&gt;+ Parser()&lt;/div&gt;&lt;div&gt;+ parse(): Configuration&lt;/div&gt;" style="text;strokeColor=none;fillColor=none;align=left;verticalAlign=top;spacingLeft=4;spacingRight=4;overflow=hidden;rotatable=0;points=[[0,0.5],[1,0.5]];portConstraint=eastwest;whiteSpace=wrap;html=1;" parent="6wgVJU0eq-c5YWtlfM_m-23" vertex="1">
          <mxGeometry y="60" width="160" height="60" as="geometry" />
        </mxCell>
        <mxCell id="6wgVJU0eq-c5YWtlfM_m-27" value="HTTPMessage" style="swimlane;fontStyle=1;align=center;verticalAlign=top;childLayout=stackLayout;horizontal=1;startSize=26;horizontalStack=0;resizeParent=1;resizeParentMax=0;resizeLast=0;collapsible=1;marginBottom=0;whiteSpace=wrap;html=1;" parent="1" vertex="1">
          <mxGeometry x="300" y="-380" width="160" height="86" as="geometry" />
        </mxCell>
        <mxCell id="6wgVJU0eq-c5YWtlfM_m-28" value="+ field: type" style="text;strokeColor=none;fillColor=none;align=left;verticalAlign=top;spacingLeft=4;spacingRight=4;overflow=hidden;rotatable=0;points=[[0,0.5],[1,0.5]];portConstraint=eastwest;whiteSpace=wrap;html=1;" parent="6wgVJU0eq-c5YWtlfM_m-27" vertex="1">
          <mxGeometry y="26" width="160" height="26" as="geometry" />
        </mxCell>
        <mxCell id="6wgVJU0eq-c5YWtlfM_m-29" value="" style="line;strokeWidth=1;fillColor=none;align=left;verticalAlign=middle;spacingTop=-1;spacingLeft=3;spacingRight=3;rotatable=0;labelPosition=right;points=[];portConstraint=eastwest;strokeColor=inherit;" parent="6wgVJU0eq-c5YWtlfM_m-27" vertex="1">
          <mxGeometry y="52" width="160" height="8" as="geometry" />
        </mxCell>
        <mxCell id="6wgVJU0eq-c5YWtlfM_m-30" value="+ method(type): type" style="text;strokeColor=none;fillColor=none;align=left;verticalAlign=top;spacingLeft=4;spacingRight=4;overflow=hidden;rotatable=0;points=[[0,0.5],[1,0.5]];portConstraint=eastwest;whiteSpace=wrap;html=1;" parent="6wgVJU0eq-c5YWtlfM_m-27" vertex="1">
          <mxGeometry y="60" width="160" height="26" as="geometry" />
        </mxCell>
        <mxCell id="6wgVJU0eq-c5YWtlfM_m-31" value="HTTPHeader" style="swimlane;fontStyle=1;align=center;verticalAlign=top;childLayout=stackLayout;horizontal=1;startSize=26;horizontalStack=0;resizeParent=1;resizeParentMax=0;resizeLast=0;collapsible=1;marginBottom=0;whiteSpace=wrap;html=1;" parent="1" vertex="1">
          <mxGeometry x="380" y="-210" width="230" height="86" as="geometry" />
        </mxCell>
        <mxCell id="6wgVJU0eq-c5YWtlfM_m-32" value="- _header_lines: Hash&amp;lt;HeaderLine&amp;gt; [*]" style="text;strokeColor=none;fillColor=none;align=left;verticalAlign=top;spacingLeft=4;spacingRight=4;overflow=hidden;rotatable=0;points=[[0,0.5],[1,0.5]];portConstraint=eastwest;whiteSpace=wrap;html=1;" parent="6wgVJU0eq-c5YWtlfM_m-31" vertex="1">
          <mxGeometry y="26" width="230" height="26" as="geometry" />
        </mxCell>
        <mxCell id="6wgVJU0eq-c5YWtlfM_m-33" value="" style="line;strokeWidth=1;fillColor=none;align=left;verticalAlign=middle;spacingTop=-1;spacingLeft=3;spacingRight=3;rotatable=0;labelPosition=right;points=[];portConstraint=eastwest;strokeColor=inherit;" parent="6wgVJU0eq-c5YWtlfM_m-31" vertex="1">
          <mxGeometry y="52" width="230" height="8" as="geometry" />
        </mxCell>
        <mxCell id="6wgVJU0eq-c5YWtlfM_m-34" value="+ method(type): type" style="text;strokeColor=none;fillColor=none;align=left;verticalAlign=top;spacingLeft=4;spacingRight=4;overflow=hidden;rotatable=0;points=[[0,0.5],[1,0.5]];portConstraint=eastwest;whiteSpace=wrap;html=1;" parent="6wgVJU0eq-c5YWtlfM_m-31" vertex="1">
          <mxGeometry y="60" width="230" height="26" as="geometry" />
        </mxCell>
        <mxCell id="6wgVJU0eq-c5YWtlfM_m-36" value="HeaderLine" style="swimlane;fontStyle=1;align=center;verticalAlign=top;childLayout=stackLayout;horizontal=1;startSize=26;horizontalStack=0;resizeParent=1;resizeParentMax=0;resizeLast=0;collapsible=1;marginBottom=0;whiteSpace=wrap;html=1;" parent="1" vertex="1">
          <mxGeometry x="810" y="-240" width="160" height="86" as="geometry" />
        </mxCell>
        <mxCell id="6wgVJU0eq-c5YWtlfM_m-37" value="+ field: type" style="text;strokeColor=none;fillColor=none;align=left;verticalAlign=top;spacingLeft=4;spacingRight=4;overflow=hidden;rotatable=0;points=[[0,0.5],[1,0.5]];portConstraint=eastwest;whiteSpace=wrap;html=1;" parent="6wgVJU0eq-c5YWtlfM_m-36" vertex="1">
          <mxGeometry y="26" width="160" height="26" as="geometry" />
        </mxCell>
        <mxCell id="6wgVJU0eq-c5YWtlfM_m-38" value="" style="line;strokeWidth=1;fillColor=none;align=left;verticalAlign=middle;spacingTop=-1;spacingLeft=3;spacingRight=3;rotatable=0;labelPosition=right;points=[];portConstraint=eastwest;strokeColor=inherit;" parent="6wgVJU0eq-c5YWtlfM_m-36" vertex="1">
          <mxGeometry y="52" width="160" height="8" as="geometry" />
        </mxCell>
        <mxCell id="6wgVJU0eq-c5YWtlfM_m-39" value="+ method(type): type" style="text;strokeColor=none;fillColor=none;align=left;verticalAlign=top;spacingLeft=4;spacingRight=4;overflow=hidden;rotatable=0;points=[[0,0.5],[1,0.5]];portConstraint=eastwest;whiteSpace=wrap;html=1;" parent="6wgVJU0eq-c5YWtlfM_m-36" vertex="1">
          <mxGeometry y="60" width="160" height="26" as="geometry" />
        </mxCell>
        <mxCell id="6wgVJU0eq-c5YWtlfM_m-40" value="HTTPBody" style="swimlane;fontStyle=1;align=center;verticalAlign=top;childLayout=stackLayout;horizontal=1;startSize=26;horizontalStack=0;resizeParent=1;resizeParentMax=0;resizeLast=0;collapsible=1;marginBottom=0;whiteSpace=wrap;html=1;" parent="1" vertex="1">
          <mxGeometry x="640" y="-210" width="160" height="86" as="geometry" />
        </mxCell>
        <mxCell id="6wgVJU0eq-c5YWtlfM_m-41" value="+ field: type" style="text;strokeColor=none;fillColor=none;align=left;verticalAlign=top;spacingLeft=4;spacingRight=4;overflow=hidden;rotatable=0;points=[[0,0.5],[1,0.5]];portConstraint=eastwest;whiteSpace=wrap;html=1;" parent="6wgVJU0eq-c5YWtlfM_m-40" vertex="1">
          <mxGeometry y="26" width="160" height="26" as="geometry" />
        </mxCell>
        <mxCell id="6wgVJU0eq-c5YWtlfM_m-42" value="" style="line;strokeWidth=1;fillColor=none;align=left;verticalAlign=middle;spacingTop=-1;spacingLeft=3;spacingRight=3;rotatable=0;labelPosition=right;points=[];portConstraint=eastwest;strokeColor=inherit;" parent="6wgVJU0eq-c5YWtlfM_m-40" vertex="1">
          <mxGeometry y="52" width="160" height="8" as="geometry" />
        </mxCell>
        <mxCell id="6wgVJU0eq-c5YWtlfM_m-43" value="+ method(type): type" style="text;strokeColor=none;fillColor=none;align=left;verticalAlign=top;spacingLeft=4;spacingRight=4;overflow=hidden;rotatable=0;points=[[0,0.5],[1,0.5]];portConstraint=eastwest;whiteSpace=wrap;html=1;" parent="6wgVJU0eq-c5YWtlfM_m-40" vertex="1">
          <mxGeometry y="60" width="160" height="26" as="geometry" />
        </mxCell>
        <mxCell id="6wgVJU0eq-c5YWtlfM_m-44" value="AbsoluteURI" style="swimlane;fontStyle=1;align=center;verticalAlign=top;childLayout=stackLayout;horizontal=1;startSize=26;horizontalStack=0;resizeParent=1;resizeParentMax=0;resizeLast=0;collapsible=1;marginBottom=0;whiteSpace=wrap;html=1;" parent="1" vertex="1">
          <mxGeometry x="760" y="-350" width="160" height="86" as="geometry" />
        </mxCell>
        <mxCell id="6wgVJU0eq-c5YWtlfM_m-45" value="+ field: type" style="text;strokeColor=none;fillColor=none;align=left;verticalAlign=top;spacingLeft=4;spacingRight=4;overflow=hidden;rotatable=0;points=[[0,0.5],[1,0.5]];portConstraint=eastwest;whiteSpace=wrap;html=1;" parent="6wgVJU0eq-c5YWtlfM_m-44" vertex="1">
          <mxGeometry y="26" width="160" height="26" as="geometry" />
        </mxCell>
        <mxCell id="6wgVJU0eq-c5YWtlfM_m-46" value="" style="line;strokeWidth=1;fillColor=none;align=left;verticalAlign=middle;spacingTop=-1;spacingLeft=3;spacingRight=3;rotatable=0;labelPosition=right;points=[];portConstraint=eastwest;strokeColor=inherit;" parent="6wgVJU0eq-c5YWtlfM_m-44" vertex="1">
          <mxGeometry y="52" width="160" height="8" as="geometry" />
        </mxCell>
        <mxCell id="6wgVJU0eq-c5YWtlfM_m-47" value="+ method(type): type" style="text;strokeColor=none;fillColor=none;align=left;verticalAlign=top;spacingLeft=4;spacingRight=4;overflow=hidden;rotatable=0;points=[[0,0.5],[1,0.5]];portConstraint=eastwest;whiteSpace=wrap;html=1;" parent="6wgVJU0eq-c5YWtlfM_m-44" vertex="1">
          <mxGeometry y="60" width="160" height="26" as="geometry" />
        </mxCell>
        <mxCell id="6wgVJU0eq-c5YWtlfM_m-48" value="Method &amp;lt;&amp;lt;enum&amp;gt;&amp;gt;" style="swimlane;fontStyle=1;align=center;verticalAlign=top;childLayout=stackLayout;horizontal=1;startSize=26;horizontalStack=0;resizeParent=1;resizeParentMax=0;resizeLast=0;collapsible=1;marginBottom=0;whiteSpace=wrap;html=1;" parent="1" vertex="1">
          <mxGeometry x="490" y="-340" width="160" height="86" as="geometry" />
        </mxCell>
        <mxCell id="6wgVJU0eq-c5YWtlfM_m-49" value="+ field: type" style="text;strokeColor=none;fillColor=none;align=left;verticalAlign=top;spacingLeft=4;spacingRight=4;overflow=hidden;rotatable=0;points=[[0,0.5],[1,0.5]];portConstraint=eastwest;whiteSpace=wrap;html=1;" parent="6wgVJU0eq-c5YWtlfM_m-48" vertex="1">
          <mxGeometry y="26" width="160" height="26" as="geometry" />
        </mxCell>
        <mxCell id="6wgVJU0eq-c5YWtlfM_m-50" value="" style="line;strokeWidth=1;fillColor=none;align=left;verticalAlign=middle;spacingTop=-1;spacingLeft=3;spacingRight=3;rotatable=0;labelPosition=right;points=[];portConstraint=eastwest;strokeColor=inherit;" parent="6wgVJU0eq-c5YWtlfM_m-48" vertex="1">
          <mxGeometry y="52" width="160" height="8" as="geometry" />
        </mxCell>
        <mxCell id="6wgVJU0eq-c5YWtlfM_m-51" value="+ method(type): type" style="text;strokeColor=none;fillColor=none;align=left;verticalAlign=top;spacingLeft=4;spacingRight=4;overflow=hidden;rotatable=0;points=[[0,0.5],[1,0.5]];portConstraint=eastwest;whiteSpace=wrap;html=1;" parent="6wgVJU0eq-c5YWtlfM_m-48" vertex="1">
          <mxGeometry y="60" width="160" height="26" as="geometry" />
        </mxCell>
        <mxCell id="I9XYT82SZLcXuWSCUwmC-6" value="Connection" style="swimlane;fontStyle=1;align=center;verticalAlign=top;childLayout=stackLayout;horizontal=1;startSize=26;horizontalStack=0;resizeParent=1;resizeParentMax=0;resizeLast=0;collapsible=1;marginBottom=0;whiteSpace=wrap;html=1;" parent="1" vertex="1">
          <mxGeometry x="1140" y="397" width="260" height="190" as="geometry" />
        </mxCell>
        <mxCell id="I9XYT82SZLcXuWSCUwmC-7" value="- socket_fd: int&lt;div&gt;- cgi_fd: int[2]&lt;br&gt;&lt;div&gt;- request: Request&lt;br&gt;&lt;div&gt;&lt;span style=&quot;background-color: transparent; color: light-dark(rgb(0, 0, 0), rgb(255, 255, 255));&quot;&gt;- closing_timestamp: Timestamp&lt;/span&gt;&lt;/div&gt;&lt;/div&gt;&lt;div&gt;- configuration: VirtualServer *&lt;/div&gt;&lt;/div&gt;" style="text;strokeColor=none;fillColor=none;align=left;verticalAlign=top;spacingLeft=4;spacingRight=4;overflow=hidden;rotatable=0;points=[[0,0.5],[1,0.5]];portConstraint=eastwest;whiteSpace=wrap;html=1;" parent="I9XYT82SZLcXuWSCUwmC-6" vertex="1">
          <mxGeometry y="26" width="260" height="104" as="geometry" />
        </mxCell>
        <mxCell id="I9XYT82SZLcXuWSCUwmC-8" value="" style="line;strokeWidth=1;fillColor=none;align=left;verticalAlign=middle;spacingTop=-1;spacingLeft=3;spacingRight=3;rotatable=0;labelPosition=right;points=[];portConstraint=eastwest;strokeColor=inherit;" parent="I9XYT82SZLcXuWSCUwmC-6" vertex="1">
          <mxGeometry y="130" width="260" height="10" as="geometry" />
        </mxCell>
        <mxCell id="I9XYT82SZLcXuWSCUwmC-9" value="+ process(): Request *&lt;div&gt;+ getStatus(): ConnectionStatus&lt;/div&gt;" style="text;strokeColor=none;fillColor=none;align=left;verticalAlign=top;spacingLeft=4;spacingRight=4;overflow=hidden;rotatable=0;points=[[0,0.5],[1,0.5]];portConstraint=eastwest;whiteSpace=wrap;html=1;" parent="I9XYT82SZLcXuWSCUwmC-6" vertex="1">
          <mxGeometry y="140" width="260" height="50" as="geometry" />
        </mxCell>
        <mxCell id="I9XYT82SZLcXuWSCUwmC-10" value="ConnectionStatus &amp;lt;&amp;lt;Enum&amp;gt;&amp;gt;" style="swimlane;fontStyle=1;align=center;verticalAlign=top;childLayout=stackLayout;horizontal=1;startSize=26;horizontalStack=0;resizeParent=1;resizeParentMax=0;resizeLast=0;collapsible=1;marginBottom=0;whiteSpace=wrap;html=1;" parent="1" vertex="1">
          <mxGeometry x="1125" y="190" width="290" height="100" as="geometry" />
        </mxCell>
        <mxCell id="I9XYT82SZLcXuWSCUwmC-11" value="IDLE, READING_REQUEST_HEADER, READING_REQUEST_BODY,&amp;nbsp; WRITING_RESPONSE, READING_CGI, WRITING_CGI, CLOSING" style="text;strokeColor=none;fillColor=none;align=left;verticalAlign=top;spacingLeft=4;spacingRight=4;overflow=hidden;rotatable=0;points=[[0,0.5],[1,0.5]];portConstraint=eastwest;whiteSpace=wrap;html=1;" parent="I9XYT82SZLcXuWSCUwmC-10" vertex="1">
          <mxGeometry y="26" width="290" height="74" as="geometry" />
        </mxCell>
        <mxCell id="I9XYT82SZLcXuWSCUwmC-14" value="" style="endArrow=open;endFill=1;endSize=12;html=1;rounded=0;" parent="1" source="I9XYT82SZLcXuWSCUwmC-6" target="I9XYT82SZLcXuWSCUwmC-10" edge="1">
          <mxGeometry width="160" relative="1" as="geometry">
            <mxPoint x="889" y="382" as="sourcePoint" />
            <mxPoint x="930" y="180" as="targetPoint" />
          </mxGeometry>
        </mxCell>
        <mxCell id="I9XYT82SZLcXuWSCUwmC-15" value="" style="endArrow=open;endFill=1;endSize=12;html=1;rounded=0;" parent="1" source="I9XYT82SZLcXuWSCUwmC-40" target="I9XYT82SZLcXuWSCUwmC-6" edge="1">
          <mxGeometry width="160" relative="1" as="geometry">
            <mxPoint x="870" y="412" as="sourcePoint" />
            <mxPoint x="911" y="210" as="targetPoint" />
          </mxGeometry>
        </mxCell>
        <mxCell id="I9XYT82SZLcXuWSCUwmC-18" value="Request" style="swimlane;fontStyle=1;align=center;verticalAlign=top;childLayout=stackLayout;horizontal=1;startSize=26;horizontalStack=0;resizeParent=1;resizeParentMax=0;resizeLast=0;collapsible=1;marginBottom=0;whiteSpace=wrap;html=1;" parent="1" vertex="1">
          <mxGeometry x="1180" y="641" width="240" height="70" as="geometry" />
        </mxCell>
        <mxCell id="I9XYT82SZLcXuWSCUwmC-19" value="+ request_type: RequestType&lt;div&gt;&lt;span style=&quot;background-color: transparent; color: light-dark(rgb(0, 0, 0), rgb(255, 255, 255));&quot;&gt;+ connection: Connection *&lt;/span&gt;&lt;/div&gt;&lt;div&gt;&lt;br&gt;&lt;/div&gt;" style="text;strokeColor=none;fillColor=none;align=left;verticalAlign=top;spacingLeft=4;spacingRight=4;overflow=hidden;rotatable=0;points=[[0,0.5],[1,0.5]];portConstraint=eastwest;whiteSpace=wrap;html=1;" parent="I9XYT82SZLcXuWSCUwmC-18" vertex="1">
          <mxGeometry y="26" width="240" height="44" as="geometry" />
        </mxCell>
        <mxCell id="I9XYT82SZLcXuWSCUwmC-22" value="RequestType &amp;lt;&amp;lt;Enum&amp;gt;&amp;gt;" style="swimlane;fontStyle=1;align=center;verticalAlign=top;childLayout=stackLayout;horizontal=1;startSize=26;horizontalStack=0;resizeParent=1;resizeParentMax=0;resizeLast=0;collapsible=1;marginBottom=0;whiteSpace=wrap;html=1;" parent="1" vertex="1">
          <mxGeometry x="1470" y="620" width="230" height="70" as="geometry" />
        </mxCell>
        <mxCell id="I9XYT82SZLcXuWSCUwmC-23" value="GET_VIRTUAL_SERVER, CLOSING, START_CGI,&amp;nbsp; END_CGI" style="text;strokeColor=none;fillColor=none;align=left;verticalAlign=top;spacingLeft=4;spacingRight=4;overflow=hidden;rotatable=0;points=[[0,0.5],[1,0.5]];portConstraint=eastwest;whiteSpace=wrap;html=1;" parent="I9XYT82SZLcXuWSCUwmC-22" vertex="1">
          <mxGeometry y="26" width="230" height="44" as="geometry" />
        </mxCell>
        <mxCell id="I9XYT82SZLcXuWSCUwmC-27" value="" style="endArrow=open;endFill=1;endSize=12;html=1;rounded=0;" parent="1" source="I9XYT82SZLcXuWSCUwmC-40" target="I9XYT82SZLcXuWSCUwmC-18" edge="1">
          <mxGeometry width="160" relative="1" as="geometry">
            <mxPoint x="936" y="400" as="sourcePoint" />
            <mxPoint x="1046" y="316" as="targetPoint" />
          </mxGeometry>
        </mxCell>
        <mxCell id="I9XYT82SZLcXuWSCUwmC-28" value="" style="endArrow=open;endFill=1;endSize=12;html=1;rounded=0;" parent="1" source="I9XYT82SZLcXuWSCUwmC-18" target="I9XYT82SZLcXuWSCUwmC-22" edge="1">
          <mxGeometry width="160" relative="1" as="geometry">
            <mxPoint x="1190" y="660" as="sourcePoint" />
            <mxPoint x="1260" y="670" as="targetPoint" />
          </mxGeometry>
        </mxCell>
        <mxCell id="I9XYT82SZLcXuWSCUwmC-40" value="Server" style="swimlane;fontStyle=1;align=center;verticalAlign=top;childLayout=stackLayout;horizontal=1;startSize=26;horizontalStack=0;resizeParent=1;resizeParentMax=0;resizeLast=0;collapsible=1;marginBottom=0;whiteSpace=wrap;html=1;" parent="1" vertex="1">
          <mxGeometry x="660" y="570" width="350" height="172" as="geometry" />
        </mxCell>
        <mxCell id="I9XYT82SZLcXuWSCUwmC-41" value="- virtual_servers: VirtualServer [*]&lt;div&gt;- connections: Connection [0 ... CONNECTION_LIMIT]&lt;/div&gt;&lt;div&gt;&lt;div&gt;&lt;div&gt;&lt;span style=&quot;background-color: transparent; color: light-dark(rgb(0, 0, 0), rgb(255, 255, 255));&quot;&gt;- requests: Queue&amp;lt;Request&amp;gt; [0 ... *]&lt;/span&gt;&lt;/div&gt;&lt;/div&gt;&lt;div&gt;&lt;span style=&quot;background-color: transparent; color: light-dark(rgb(0, 0, 0), rgb(255, 255, 255));&quot;&gt;- poll_fd: int&lt;/span&gt;&lt;/div&gt;&lt;/div&gt;" style="text;strokeColor=none;fillColor=none;align=left;verticalAlign=top;spacingLeft=4;spacingRight=4;overflow=hidden;rotatable=0;points=[[0,0.5],[1,0.5]];portConstraint=eastwest;whiteSpace=wrap;html=1;" parent="I9XYT82SZLcXuWSCUwmC-40" vertex="1">
          <mxGeometry y="26" width="350" height="74" as="geometry" />
        </mxCell>
        <mxCell id="I9XYT82SZLcXuWSCUwmC-42" value="" style="line;strokeWidth=1;fillColor=none;align=left;verticalAlign=middle;spacingTop=-1;spacingLeft=3;spacingRight=3;rotatable=0;labelPosition=right;points=[];portConstraint=eastwest;strokeColor=inherit;" parent="I9XYT82SZLcXuWSCUwmC-40" vertex="1">
          <mxGeometry y="100" width="350" height="10" as="geometry" />
        </mxCell>
        <mxCell id="I9XYT82SZLcXuWSCUwmC-43" value="+ Server(config_file: String)&lt;div&gt;&lt;div&gt;+ Server()&lt;/div&gt;&lt;/div&gt;&lt;div&gt;+ run()&lt;/div&gt;" style="text;strokeColor=none;fillColor=none;align=left;verticalAlign=top;spacingLeft=4;spacingRight=4;overflow=hidden;rotatable=0;points=[[0,0.5],[1,0.5]];portConstraint=eastwest;whiteSpace=wrap;html=1;" parent="I9XYT82SZLcXuWSCUwmC-40" vertex="1">
          <mxGeometry y="110" width="350" height="62" as="geometry" />
        </mxCell>
        <mxCell id="I9XYT82SZLcXuWSCUwmC-44" value="" style="endArrow=open;endFill=1;endSize=12;html=1;rounded=0;" parent="1" source="I9XYT82SZLcXuWSCUwmC-40" target="6wgVJU0eq-c5YWtlfM_m-17" edge="1">
          <mxGeometry width="160" relative="1" as="geometry">
            <mxPoint x="942" y="400" as="sourcePoint" />
            <mxPoint x="1053" y="326" as="targetPoint" />
          </mxGeometry>
        </mxCell>
        <mxCell id="I9XYT82SZLcXuWSCUwmC-47" value="VirtualServerConfiguration" style="swimlane;fontStyle=1;align=center;verticalAlign=top;childLayout=stackLayout;horizontal=1;startSize=26;horizontalStack=0;resizeParent=1;resizeParentMax=0;resizeLast=0;collapsible=1;marginBottom=0;whiteSpace=wrap;html=1;" parent="1" vertex="1">
          <mxGeometry x="700" y="160" width="260" height="170" as="geometry" />
        </mxCell>
        <mxCell id="I9XYT82SZLcXuWSCUwmC-48" value="+ host: Host&lt;div&gt;+ port: int&lt;br&gt;&lt;div&gt;+ methods: Method [1..*]&lt;/div&gt;&lt;div&gt;+ server_name: String&lt;/div&gt;&lt;/div&gt;&lt;div&gt;+ error_page: Path&lt;/div&gt;&lt;div&gt;+ directory_request_file: Path&lt;/div&gt;&lt;div&gt;+ php_cgi: Path&lt;/div&gt;&lt;div&gt;+ python_cgi: Path&lt;/div&gt;&lt;div&gt;+ request_size_limit: int&lt;/div&gt;" style="text;strokeColor=none;fillColor=none;align=left;verticalAlign=top;spacingLeft=4;spacingRight=4;overflow=hidden;rotatable=0;points=[[0,0.5],[1,0.5]];portConstraint=eastwest;whiteSpace=wrap;html=1;" parent="I9XYT82SZLcXuWSCUwmC-47" vertex="1">
          <mxGeometry y="26" width="260" height="144" as="geometry" />
        </mxCell>
      </root>
    </mxGraphModel>
  </diagram>
</mxfile>
